<svg id="visual" viewBox="0 0 1920 300" width="1920" height="300" xmlns="http://www.w3.org/2000/svg" xmlns:xlink="http://www.w3.org/1999/xlink" version="1.1"><rect x="0" y="0" width="1920" height="300" fill="#000000"></rect><path d="M0 172L12.8 167.8C25.7 163.7 51.3 155.3 77 154.7C102.7 154 128.3 161 153.8 174.3C179.3 187.7 204.7 207.3 230.2 192.2C255.7 177 281.3 127 307 93.3C332.7 59.7 358.3 42.3 384 49.5C409.7 56.7 435.3 88.3 461 124.5C486.7 160.7 512.3 201.3 537.8 187.7C563.3 174 588.7 106 614.2 103.7C639.7 101.3 665.3 164.7 691 178.7C716.7 192.7 742.3 157.3 768 123.5C793.7 89.7 819.3 57.3 845 49.7C870.7 42 896.3 59 921.8 74C947.3 89 972.7 102 998.2 113.8C1023.7 125.7 1049.3 136.3 1075 144.5C1100.7 152.7 1126.3 158.3 1152 172.8C1177.7 187.3 1203.3 210.7 1229 192.5C1254.7 174.3 1280.3 114.7 1305.8 110.5C1331.3 106.3 1356.7 157.7 1382.2 184C1407.7 210.3 1433.3 211.7 1459 208.5C1484.7 205.3 1510.3 197.7 1536 183.3C1561.7 169 1587.3 148 1613 133.8C1638.7 119.7 1664.3 112.3 1689.8 120C1715.3 127.7 1740.7 150.3 1766.2 170.5C1791.7 190.7 1817.3 208.3 1843 216.3C1868.7 224.3 1894.3 222.7 1907.2 221.8L1920 221L1920 0L1907.2 0C1894.3 0 1868.7 0 1843 0C1817.3 0 1791.7 0 1766.2 0C1740.7 0 1715.3 0 1689.8 0C1664.3 0 1638.7 0 1613 0C1587.3 0 1561.7 0 1536 0C1510.3 0 1484.7 0 1459 0C1433.3 0 1407.7 0 1382.2 0C1356.7 0 1331.3 0 1305.8 0C1280.3 0 1254.7 0 1229 0C1203.3 0 1177.7 0 1152 0C1126.3 0 1100.7 0 1075 0C1049.3 0 1023.7 0 998.2 0C972.7 0 947.3 0 921.8 0C896.3 0 870.7 0 845 0C819.3 0 793.7 0 768 0C742.3 0 716.7 0 691 0C665.3 0 639.7 0 614.2 0C588.7 0 563.3 0 537.8 0C512.3 0 486.7 0 461 0C435.3 0 409.7 0 384 0C358.3 0 332.7 0 307 0C281.3 0 255.7 0 230.2 0C204.7 0 179.3 0 153.8 0C128.3 0 102.7 0 77 0C51.3 0 25.7 0 12.8 0L0 0Z" fill="#121212" stroke-linecap="round" stroke-linejoin="miter"></path></svg>